# xmcd
#
# Track frame offsets:
#	150
#	14041
#	27510
#	45593
#	59527
#	73920
#	90728
#	104722
#	120223
#	131409
#	148653
#
# Disc length: 2179 seconds
#
# Revision: 1
# Processed by: cddbd v1.5.2PL0 Copyright (c) Steve Scherf et al.
# Submitted via: audiograbber 1.83.01
#
DISCID=a208810b
DTITLE=Various Artist - The Music of Nashville Original Soundtrack Season 1 Volume 1
DYEAR=2012
DGENRE=Country
TTITLE0=Connie Britton - Buried Under
TTITLE1=Sam Paladine, Clare Bowen - If I Didn't Know Better
TTITLE2=Hayden Panettiere, Charles Esten - Undermine
TTITLE3=Charles Esten - Sideshow
TTITLE4=Connie Britton, Hayden Panettiere - Wrong Song
TTITLE5=Connie Britton, Charles Esten - No One Will Ever Love You
TTITLE6=Jonathan Jackson - Twist of Barbwire
TTITLE7=Hayden Panettiere - Love Like Mine
TTITLE8=Lennon Stella, Maisy Stella - Telescope
TTITLE9=Clare Bowen, Sam Palladino - When the Right One Comes Along
TTITLE10=Hayden Panettiere - Telescope (Radio Mix)
EXTD=
EXTT0=
EXTT1=
EXTT2=
EXTT3=
EXTT4=
EXTT5=
EXTT6=
EXTT7=
EXTT8=
EXTT9=
EXTT10=
PLAYORDER=
